<svg xmlns="http://www.w3.org/2000/svg" viewBox="0 0 294 82.7"><defs><style>.cls-1{fill:#e6d29e;}.cls-2{fill:#d7375e;}.cls-3{fill:#f27a6b;}</style></defs><g id="Layer_2" data-name="Layer 2"><g id="Layer_1-2" data-name="Layer 1"><path class="cls-1" d="M68.68,38.09a8.87,8.87,0,0,1-2.52,5.62A26.36,26.36,0,0,1,56,51.05c-.36,1.73-1.15,2.52-2.23,2.52a3.33,3.33,0,0,1-2.23-1.29,22.92,22.92,0,0,1-5.26.5c-6.48,0-11.67-1.87-15.55-5.54a18.26,18.26,0,0,1-5.91-14,23.48,23.48,0,0,1,5.83-15.12c2.88-3.24,5.19-4.9,6.92-4.9a2.13,2.13,0,0,1,.86.14,11.88,11.88,0,0,1,3.89-6.84,2.47,2.47,0,0,1-.15-.93c0-1.8,2.09-3.32,4.76-3.32a7.67,7.67,0,0,1,4.68,1.59A50,50,0,0,0,58.1,6.84a7.54,7.54,0,0,0,2.45.43A6.76,6.76,0,0,0,65,5.62,2,2,0,0,1,66.38,5c1.15,0,2.09,1.44,2.09,3.38a6.33,6.33,0,0,1-1.59,4.18,8.67,8.67,0,0,1-7.13,3,24.17,24.17,0,0,1-12.24-4,6.75,6.75,0,0,0-1.22,1.66c-.58,1.08-.87,3-.87,5.9,0,1.23,0,2.38.22,5.55s.15,4.32.15,5.54a20.59,20.59,0,0,1-.08,2.67c-.36,4.32-3.45,7.63-6.33,7.63a2,2,0,0,1-1.59-.65,1.58,1.58,0,0,1-.43-1.22,7.42,7.42,0,0,1,.43-2,14.07,14.07,0,0,0,.79-3.82c.08-1.08.15-2,.15-4.24,0-1.37-.07-4-.36-7.92a20.23,20.23,0,0,0-4.75,11.59,12.05,12.05,0,0,0,3.6,8.86,12.32,12.32,0,0,0,9.14,3.52A15.24,15.24,0,0,0,50,44.21V39.6c0-4.1-.07-7.56-.14-10.29s-.29-5.84-.5-9.36v-.44c0-1.8.86-2.8,2.3-2.8,2.38,0,4.82,2.73,5.11,6.12.22,2.88.29,5.32.29,7.84,0,3.1-.07,6.77-.36,11.38a29.17,29.17,0,0,0,7-4.61A5.37,5.37,0,0,1,67,35.86C68,35.86,68.68,36.72,68.68,38.09Z"/><path class="cls-1" d="M79,32.54a4.8,4.8,0,0,1-1.48,2,25.22,25.22,0,0,1,3.12.91,2.3,2.3,0,0,1,1.63,2.16c0,1.2-1,2.11-2.55,2.11,0,0-.33,0-.48,0s-.76,0-1.72-.09a22.13,22.13,0,0,1-2.36-.24c-2.16-.19-3.41-.63-3.93-1.2A3,3,0,0,1,70.33,36a2.39,2.39,0,0,1,1.11-2.16c2.16-1.35,2.25-1.92,2.25-3.27v-.19c0-1.39,0-2.69-.14-5.81-.14-3.5-.14-4.89-.14-6.29,0-.81.09-1.63.14-2.25-.24-.39-1.1-1.44-2.5-3.17a1.62,1.62,0,0,1-.86-1.34c0-1.3,1.78-2.5,3.55-2.5h.19a3.5,3.5,0,0,1,2.45,1.63,7.59,7.59,0,0,1,2-1.1,4.33,4.33,0,0,1,1.44-.29c1.3,0,2.35.72,2.35,1.63a1.63,1.63,0,0,1-1,1.44c-1.54.91-2,1.73-2,3.89v.38c0,1.35.05,2.55.19,5.81.15,3.6.2,4.95.2,6.29A11.77,11.77,0,0,1,79,32.54Z"/><path class="cls-1" d="M100,39.84h-.19c-1.3-.05-2.3-.92-2.93-2.5-1.58,1.78-3.69,3-5.42,3h-.1a7.75,7.75,0,0,1-4.42-1.68c-1.48-1.16-2.35-2.16-2.59-3.17a3.55,3.55,0,0,1-.09-.67,3.38,3.38,0,0,1,1-2.21,41.21,41.21,0,0,0,.57-4.9c.05-.53.05-1,.05-1.78A3.76,3.76,0,0,0,85,23.13h0c-1.1,0-1.72-.72-1.72-1.92A4.27,4.27,0,0,1,87.13,17c2.69,0,4.37,2.84,4.37,7.25,0,.19,0,.87,0,1.11a45.07,45.07,0,0,1-1.16,8,3,3,0,0,0,2.21,1.24c.72,0,1.3-.33,3.27-2.06a23.12,23.12,0,0,1-.2-3.46A49.65,49.65,0,0,1,96,23.32c-1.78-.53-3.22-1.39-3.41-2,0-.39-.1-.53-.1-.72a3.27,3.27,0,0,1,2.88-3.36,2.4,2.4,0,0,1,1.11.28c.43.2,1.39.92,1.53,1,.39-.38.48-.43.63-.57a4.35,4.35,0,0,1,2.73-1c1.15,0,1.92.57,1.92,1.49a4,4,0,0,1-.57,1.72,10.18,10.18,0,0,0-1,2.07,24.07,24.07,0,0,0-.58,5.9c0,3.27.43,5.91,1,6.05h.29a3.26,3.26,0,0,0,1-.14,1,1,0,0,1,.39-.05c.53,0,.86.58.86,1.39a4.2,4.2,0,0,1-.77,2.45A4.68,4.68,0,0,1,100,39.84Z"/><path class="cls-1" d="M123.47,27.31a24.73,24.73,0,0,1-.29,4.7,4.51,4.51,0,0,1-1.44,3,7.48,7.48,0,0,1-3.12,3.74,8.59,8.59,0,0,1-4.8,1.54h-.09a11.67,11.67,0,0,1-6.44-2.74A3.86,3.86,0,0,1,106,34.75,4.05,4.05,0,0,1,107.2,32a8,8,0,0,0,.24-2.59c0-.72,0-1.54-.15-4.23-.14-3.07-.14-4.08-.14-5a20.43,20.43,0,0,1,.34-4.22,19.51,19.51,0,0,1-2.5-3.12,3.12,3.12,0,0,1-.43-1.39A2.76,2.76,0,0,1,107.44,9a2.61,2.61,0,0,1,1,.19,3.85,3.85,0,0,1,1.88,1.54,10,10,0,0,1,3-1.39,3.56,3.56,0,0,1,1.06-.2,1.62,1.62,0,0,1,1.72,1.64,2.51,2.51,0,0,1-1.39,2.16c-1.39.91-2,2.4-2,4.84,0,.2,0,1.16.1,2.84.62-.53,1.63-1.35,3-2.45a5.44,5.44,0,0,1,2.69-1.2,1.75,1.75,0,0,1,1.44.91,34.18,34.18,0,0,0,3,3,2.22,2.22,0,0,1,.82,1.77,4.84,4.84,0,0,1-.15,1C123.62,24.52,123.52,25.34,123.47,27.31Zm-10.37-2c.05,2.49.1,3.17.1,3.89a8.59,8.59,0,0,1-1.11,4.41,6.31,6.31,0,0,0,3.08,1.16c.81,0,1.34-.24,3.21-1.4a68.68,68.68,0,0,1-.48-7.82,6.07,6.07,0,0,1,0-.82v-.67a4.25,4.25,0,0,0-.67-.67.29.29,0,0,0-.24-.1,2,2,0,0,0-.34.1c-.19.14-.43.24-1,.62s-1,.63-1.34.82A3.1,3.1,0,0,1,113.1,25.34Z"/><path class="cls-1" d="M168.5,44.21a12.77,12.77,0,0,1-1.08,4.47,9.16,9.16,0,0,1-8.14,5.68c-2.23,0-4.32-.64-8.86-3.31a14.41,14.41,0,0,0-3.81-1.8,13.87,13.87,0,0,1-7.92,2.59c-2.88-.07-4.54-1.29-4.54-3.38a4.12,4.12,0,0,1,.22-1.51c.86-3,4.17-4.75,9.28-5.26a32.74,32.74,0,0,0,2.52-5.54,13.58,13.58,0,0,0-2.73.57,4.81,4.81,0,0,1-1.66.36,1.47,1.47,0,0,1-1.65-1.65,6.31,6.31,0,0,1,1.58-3.82A6.5,6.5,0,0,1,145,29a16.8,16.8,0,0,1,3.6-.79,41.26,41.26,0,0,1,4.61-10.95,8.92,8.92,0,0,1-2.45-3.74,1.66,1.66,0,0,1-.07-.65,2.1,2.1,0,0,1,2.31-2,2.88,2.88,0,0,1,1.44.43,19.63,19.63,0,0,0,2.73,1.16,11.19,11.19,0,0,1,4.25-2.31,20.71,20.71,0,0,0-8.21-2.23c-5.18.29-7.49,3.17-8.42,10.15,0,.22.07.72.07.94,0,2.52-1.08,4.18-2.59,4.18s-2.88-1.66-3.17-4.25c-.07-1.08-.22-2.09-.22-3.17C138.9,6.19,144.66,0,153.66,0c5.19,0,11.09,2,19.73,7.13a2.91,2.91,0,0,1,.8.5c1.65-1.8,3.52-2.95,5.18-2.95s2.74,1.08,2.74,3c0,1.66-.87,3.82-2.38,6.34-1.08,2.59-1.58,6.41-1.58,11.23v1.8a8.91,8.91,0,0,0,1.51-.86,4.4,4.4,0,0,1,2.23-1.08c.79,0,1.22.58,1.22,1.66a8,8,0,0,1-4,6.48,1.93,1.93,0,0,1-.36.14c.79,5.47,2,9.22,3.39,9.29a5.54,5.54,0,0,0,1.94-.58c.5-.21,1.51-.64,1.87-.86a2.93,2.93,0,0,1,1.23-.36c.86,0,1.29.65,1.29,1.8a7,7,0,0,1-1.37,3.82,11,11,0,0,1-3.74,3,10,10,0,0,1-4.75,1.37c-4.32,0-7.56-6-8.72-15.7-1.22.07-2.52.22-3.88.22A22.16,22.16,0,0,0,165.9,38a2.69,2.69,0,0,1-2.37,2.74,1.82,1.82,0,0,1-1.73-1.44,35.09,35.09,0,0,1-1-3.75c-.79,0-1.44,0-3.17.07h-3a32.93,32.93,0,0,1-3,7.13l4,1.73a14.2,14.2,0,0,0,4.68,1.44,6.82,6.82,0,0,0,4.82-2.38c.79-1.08,1.51-1.65,2.16-1.65S168.5,42.77,168.5,44.21Zm-1.44-20.09a5.38,5.38,0,0,0-.08.58,3.26,3.26,0,0,0-.07.72c-.21,1.44-.29,2.16-.36,3h2.81v-1a51.43,51.43,0,0,1,1.3-12.31,4.36,4.36,0,0,1-1.52-.79c-.28-.22-.57-.29-1.36-.79l-1.59-.94a2.07,2.07,0,0,1,.07.72c0,2.67-2.3,5.4-5.54,6.34A28.35,28.35,0,0,0,156.83,28c.36,0,.65.07,1.51.07s1.16.07,1.52.07v-.5c.07-3.1,2.66-5.62,5.18-5.62A1.88,1.88,0,0,1,167.06,24.12Z"/><path class="cls-1" d="M202.36,39.84h-.19c-1.3-.05-2.31-.92-2.93-2.5-1.59,1.78-3.7,3-5.43,3h-.09a7.75,7.75,0,0,1-4.42-1.68c-1.49-1.16-2.35-2.16-2.59-3.17a3.63,3.63,0,0,1-.1-.67,3.43,3.43,0,0,1,1-2.21,40.89,40.89,0,0,0,.58-4.9c0-.53,0-1,0-1.78a3.81,3.81,0,0,0-.77-2.78h-.05c-1.1,0-1.73-.72-1.73-1.92A4.28,4.28,0,0,1,189.54,17c2.69,0,4.37,2.84,4.37,7.25,0,.19,0,.87,0,1.11a45,45,0,0,1-1.15,8,3,3,0,0,0,2.21,1.24c.72,0,1.29-.33,3.26-2.06a24.7,24.7,0,0,1-.19-3.46,49.55,49.55,0,0,1,.43-5.76c-1.77-.53-3.21-1.39-3.41-2,0-.39-.09-.53-.09-.72a3.27,3.27,0,0,1,2.88-3.36,2.36,2.36,0,0,1,1.1.28c.43.2,1.39.92,1.54,1,.38-.38.48-.43.62-.57a4.4,4.4,0,0,1,2.74-1c1.15,0,1.92.57,1.92,1.49a3.91,3.91,0,0,1-.58,1.72,10.75,10.75,0,0,0-1,2.07,24.64,24.64,0,0,0-.57,5.9c0,3.27.43,5.91,1,6.05h.28a3.35,3.35,0,0,0,1-.14.88.88,0,0,1,.38-.05c.53,0,.87.58.87,1.39a4.27,4.27,0,0,1-.77,2.45A4.68,4.68,0,0,1,202.36,39.84Z"/><path class="cls-1" d="M224.1,36.76a9.91,9.91,0,0,1-4.41,2.36l-.29,0a4.69,4.69,0,0,1-3,1.06,7.14,7.14,0,0,1-2.54-.72,10.64,10.64,0,0,1-2.74-1.58,3.16,3.16,0,0,1-2.21-3,4.22,4.22,0,0,1,.2-1.15,15.32,15.32,0,0,0,.19-2.74c0-.52,0-1-.05-2.21s-.05-1.63-.05-2.06a8.92,8.92,0,0,1,.58-3.74,8.21,8.21,0,0,1,5.81-4.08h.09c-2.88-2.12-4.61-4.23-5-6a4.51,4.51,0,0,1-.09-1c0-1.78,1.05-3.27,2.35-3.27.81,0,1.53.58,2.25,1.59a50.58,50.58,0,0,0,4.37,4,53.12,53.12,0,0,0,5.19,4,2.72,2.72,0,0,1,1.48,2.5,6.24,6.24,0,0,1-.19,1.63c0,2.55,0,3.79.15,5.86,0,.57,0,1.1,0,2.26C226.21,33.69,225.64,35.23,224.1,36.76ZM215,33.12a13,13,0,0,0,3.51,2.54s.09.05.09.05A3.91,3.91,0,0,0,220,34a12.81,12.81,0,0,0,.34-3.84c0-.77-.05-1.49-.1-3.08s-.09-2-.09-2.59a12.89,12.89,0,0,1,.19-2.54,6.64,6.64,0,0,0-.82-.48c-.77-.43-1.1-.67-1.44-.87a2,2,0,0,1-.67,1A6.7,6.7,0,0,0,215.32,24a10.07,10.07,0,0,0-.43,3.41c0,.43,0,.91,0,2.07s.1,1.73.1,2.3A8.73,8.73,0,0,1,215,33.12Z"/><path class="cls-1" d="M245.46,39.84h-.19c-1.3-.05-2.3-.92-2.93-2.5-1.58,1.78-3.69,3-5.42,3h-.1a7.75,7.75,0,0,1-4.42-1.68c-1.48-1.16-2.35-2.16-2.59-3.17a3.55,3.55,0,0,1-.09-.67,3.38,3.38,0,0,1,1-2.21,41.21,41.21,0,0,0,.57-4.9c.05-.53.05-1,.05-1.78a3.76,3.76,0,0,0-.77-2.78h-.05c-1.1,0-1.72-.72-1.72-1.92A4.27,4.27,0,0,1,232.64,17c2.69,0,4.37,2.84,4.37,7.25,0,.19,0,.87,0,1.11a44.14,44.14,0,0,1-1.15,8A3,3,0,0,0,238,34.6c.72,0,1.3-.33,3.27-2.06a23.12,23.12,0,0,1-.2-3.46,49.65,49.65,0,0,1,.44-5.76c-1.78-.53-3.22-1.39-3.41-2-.05-.39-.1-.53-.1-.72a3.28,3.28,0,0,1,2.88-3.36,2.4,2.4,0,0,1,1.11.28c.43.2,1.39.92,1.53,1,.39-.38.48-.43.63-.57a4.35,4.35,0,0,1,2.73-1c1.15,0,1.92.57,1.92,1.49a4,4,0,0,1-.57,1.72,10.18,10.18,0,0,0-1,2.07,24.07,24.07,0,0,0-.58,5.9c0,3.27.43,5.91,1,6.05H248a3.26,3.26,0,0,0,1-.14,1,1,0,0,1,.39-.05c.53,0,.86.58.86,1.39a4.2,4.2,0,0,1-.77,2.45A4.68,4.68,0,0,1,245.46,39.84Z"/><path class="cls-1" d="M265.24,39.74a3.31,3.31,0,0,1-2.88-2,50.65,50.65,0,0,1-2.16-5c-1.35,4.08-3.89,7.11-6.15,7.11H254a3.67,3.67,0,0,1-3.31-3.51c0-1.68,1.06-2.35,4-2.49a13.4,13.4,0,0,0,2.11-2.93c-2.31-.19-3.65-1.16-3.65-2.5a2.2,2.2,0,0,1,2-2.06c.19,0,.43-.05,1.34-.05.72,0,1-.05,1.39-.05-.14-.24-.57-1.49-.77-1.92-.52-1.2-.72-1.49-1.15-1.49s-.91.39-2,1.49a2,2,0,0,1-1.49.82c-.77,0-1.35-.68-1.35-1.78a4.42,4.42,0,0,1,.58-2.11c1.49-2.64,3.6-4.42,5.38-4.42h0c1.35,0,2.5,1,3.41,2.83a29.36,29.36,0,0,1,1.63,4,19.9,19.9,0,0,1,3.8-5.52,4.17,4.17,0,0,1,2.64-1.44c1.2,0,2,1.25,2,3,0,2.07-1.05,3.6-2.59,3.6h-.24a11.33,11.33,0,0,0-2.83,3h1.39c1.78.05,2.78.53,2.78,1.34s-1.29,1.93-3,2.26a7.68,7.68,0,0,0-1.59.34,39.12,39.12,0,0,0,1.83,4.13,4.82,4.82,0,0,1,1.68-.44,3,3,0,0,1,.67,0,2.07,2.07,0,0,1,2.31,1.92A2,2,0,0,1,270,37.48a12.66,12.66,0,0,1-3.22,1.88A4.16,4.16,0,0,1,265.24,39.74Z"/><path class="cls-2" d="M291,62.94a2.65,2.65,0,0,1-.73-.09c-24.42-6.1-58-10.35-97.09-12.28a3,3,0,0,1,.3-6c39.48,2,73.46,6.27,98.25,12.46a3,3,0,0,1-.73,5.91Z"/><path class="cls-2" d="M68.68,52.78a3,3,0,0,1-.27-6c18.75-1.69,38.83-2.76,59.68-3.16a3,3,0,1,1,.12,6C107.5,50,87.56,51.09,69,52.77Z"/><path class="cls-2" d="M3,62.94A3,3,0,0,1,2.27,57c8.15-2,17.42-3.89,27.55-5.51a3,3,0,1,1,.95,5.92c-10,1.6-19.06,3.42-27,5.41A2.65,2.65,0,0,1,3,62.94Z"/><path class="cls-3" d="M63.52,69.56a.62.62,0,0,1,.56-.37h2.55a.6.6,0,0,1,.56.37l5,12.51a.27.27,0,0,1-.25.37H69.1a.6.6,0,0,1-.55-.37l-.47-1.24a.5.5,0,0,0-.46-.32H63.08a.5.5,0,0,0-.46.32l-.47,1.24a.6.6,0,0,1-.55.37H58.71a.27.27,0,0,1-.25-.37Zm4.54-3.23a.45.45,0,0,1,.14.59l-.73,1.26a.45.45,0,0,1-.58.19l-4.18-1.92a.37.37,0,0,1-.17-.53l1.24-2.14a.38.38,0,0,1,.54-.12Zm-1.6,11.1a.23.23,0,0,0,.22-.32l-1.2-3.25a.12.12,0,0,0-.24,0L64,77.11a.23.23,0,0,0,.22.32Z"/><path class="cls-3" d="M92.2,82.44a.41.41,0,0,1-.41-.4V69.59a.41.41,0,0,1,.41-.4H98c4.14,0,6.27,3,6.27,6.62s-2.13,6.63-6.27,6.63Zm5.49-10H95.53a.35.35,0,0,0-.34.34v6a.34.34,0,0,0,.34.34h2.16c2,0,3.1-1.36,3.1-3.35S99.71,72.48,97.69,72.48Z"/><path class="cls-3" d="M112.5,69.59a.41.41,0,0,1,.41-.4h2.58a.41.41,0,0,1,.41.4V82a.41.41,0,0,1-.41.4h-2.58a.41.41,0,0,1-.41-.4Z"/><path class="cls-3" d="M124.23,78.94a.46.46,0,0,1,.44-.47H127c.39,0,.47.08.68.44s.93.85,2.12.85,1.68-.43,1.68-.82c0-.56-.66-.9-2.26-1.44-2.1-.7-4.88-1.72-4.88-4.46,0-2.53,2.16-4.11,5.19-4.11s5.25,1.61,5.42,4a.47.47,0,0,1-.44.48h-2.36a.55.55,0,0,1-.58-.46,1.93,1.93,0,0,0-2-1.07c-1.16,0-1.62.46-1.62.9s.61.8,2.19,1.34c1.84.65,5,1.74,5,4.65,0,2.58-2.25,3.94-5.27,3.94S124.47,81.37,124.23,78.94Z"/><path class="cls-3" d="M143,72.48a.4.4,0,0,1-.4-.41V69.59a.4.4,0,0,1,.4-.4h10.85a.41.41,0,0,1,.41.4v2.48a.41.41,0,0,1-.41.41h-3.38a.34.34,0,0,0-.34.34V82a.41.41,0,0,1-.41.4h-2.59a.4.4,0,0,1-.4-.4V72.82a.35.35,0,0,0-.34-.34Z"/><path class="cls-3" d="M166.49,69.56a.61.61,0,0,1,.56-.37h2.55a.6.6,0,0,1,.56.37l5.05,12.51a.27.27,0,0,1-.25.37h-2.89a.6.6,0,0,1-.55-.37l-.47-1.24a.5.5,0,0,0-.46-.32h-4.54a.49.49,0,0,0-.46.32l-.48,1.24a.58.58,0,0,1-.54.37h-2.89a.27.27,0,0,1-.25-.37Zm2.94,7.87a.24.24,0,0,0,.22-.32l-1.2-3.25a.12.12,0,0,0-.24,0L167,77.11a.24.24,0,0,0,.23.32Z"/><path class="cls-3" d="M186.57,82a.41.41,0,0,1-.41.4h-2.57a.4.4,0,0,1-.4-.4V69.59a.4.4,0,0,1,.4-.4h2.06a.8.8,0,0,1,.66.32l5.46,6.81a.11.11,0,0,0,.2-.06V69.59a.41.41,0,0,1,.41-.4H195a.41.41,0,0,1,.41.4V82a.41.41,0,0,1-.41.4h-2.06a.84.84,0,0,1-.66-.32l-5.46-6.8a.11.11,0,0,0-.2.07Z"/><path class="cls-3" d="M213.58,77.89a.46.46,0,0,1,.6-.19l2.36,1a.35.35,0,0,1,.15.51,6.89,6.89,0,1,1,0-6.9.37.37,0,0,1-.15.52l-2.34,1a.44.44,0,0,1-.6-.17,3.61,3.61,0,1,0,0,4.15Z"/><path class="cls-3" d="M225.29,82.44a.4.4,0,0,1-.4-.4V69.59a.4.4,0,0,1,.4-.4h9.37a.41.41,0,0,1,.41.4v2.48a.41.41,0,0,1-.41.41h-6a.34.34,0,0,0-.34.34v1.23a.34.34,0,0,0,.34.34h4.82a.41.41,0,0,1,.41.4v2.27a.41.41,0,0,1-.41.4h-4.82a.34.34,0,0,0-.34.34v1a.34.34,0,0,0,.34.34h6a.42.42,0,0,1,.41.41V82a.41.41,0,0,1-.41.4Z"/></g></g></svg>